# xmcd CD database file
#
# Track frame offsets:
#	150
#	29190
#	61181
#	91191
#	123076
#	142170
#	174525
#	194197
#	217511
#
# Disc length: 3381 seconds
#
# Revision: 0
# Processed by: cddbd v1.5.2PL0 Copyright (c) Steve Scherf et al.
# Submitted via: CDex 1.51
#
DISCID=810d3309
DTITLE=Gandalf - Lotus Land
DYEAR=2007
DGENRE=New Age
TTITLE0=A Seed Dreaming Inside
TTITLE1=Life Is Love
TTITLE2=Where The Heart Finds A Home
TTITLE3=Love Opens The Gates
TTITLE4=Just A Glimpse Of Paradise
TTITLE5=Mystic Voyage
TTITLE6=A Heavenly Gift
TTITLE7=The Lotus Unfolds
TTITLE8=Waves Of Delight
EXTD=YEAR: 2007
EXTT0=
EXTT1=
EXTT2=
EXTT3=
EXTT4=
EXTT5=
EXTT6=
EXTT7=
EXTT8=
PLAYORDER=
